<?xml version="1.0" encoding="utf-8"?>
<!-- Generator: Adobe Illustrator 23.0.0, SVG Export Plug-In . SVG Version: 6.00 Build 0)  -->
<svg version="1.1" id="레이어_1" xmlns="http://www.w3.org/2000/svg" xmlns:xlink="http://www.w3.org/1999/xlink" x="0px"
	 y="0px" viewBox="0 0 96 113.82" style="enable-background:new 0 0 96 113.82;" xml:space="preserve">
<style type="text/css">
	.st0{fill:#FFFFFF;}
	.st1{fill:#F0512A;}
	.st2{fill:#C9442C;}
</style>
<g>
	<path class="st0" d="M47.91,7.25c0,0-15.35,15.18-43.16,16.01c0,0-5.71,57.57,43.14,84.92c0,0,46.86-21.57,42.97-85.03
		C90.86,23.14,68.94,24.38,47.91,7.25z"/>
	<path class="st1" d="M48.43,11.34c0,0-13.83,13.68-38.88,14.42c0,0-5.15,51.86,38.86,76.51c0,0,42.21-19.43,38.71-76.61
		C87.13,25.66,67.38,26.78,48.43,11.34z"/>
	<path class="st2" d="M87.13,25.66L23,78.83c0,0,8.68,14.17,25.14,23.46C48.13,102.29,89.87,83.55,87.13,25.66z"/>
	<path class="st1" d="M90.05,23.58c3.78,61.65-41.74,82.61-41.74,82.61C0.85,79.61,6.4,23.69,6.4,23.69
		c27.01-0.8,41.92-15.55,41.92-15.55C68.75,24.78,90.05,23.58,90.05,23.58z M48.54,2.64c0,0-16.53,16.35-46.48,17.24
		c0,0-6.15,62,46.46,91.46c0,0,50.47-23.23,46.28-91.58C94.8,19.76,71.19,21.09,48.54,2.64z"/>
	<g>
		<path class="st0" d="M49.78,64.46h10.28v7.34H38.53v-7.49l9.2-11.4c1.21-1.53,2.1-2.86,2.67-3.99c0.57-1.13,0.86-2.24,0.86-3.35
			c0-1.24-0.16-2.15-0.49-2.74c-0.33-0.59-0.82-0.88-1.47-0.88c-0.65,0-1.14,0.41-1.47,1.22c-0.33,0.78-0.49,2.09-0.49,3.91
			l-9.05-0.49c0-4.01,0.9-7.01,2.72-9c1.81-1.99,4.58-2.98,8.29-2.98c3.82,0,6.65,0.91,8.49,2.72c1.84,1.81,2.76,4.58,2.76,8.29
			c0,3.85-1.22,7.27-3.67,10.28L49.78,64.46z"/>
	</g>
</g>
</svg>
